PathFileType	4	(X/Y/Z)	Patient4_TMGait_0pt6_02_left_14.trc.trc
DataRate	CameraRate	NumFrames	NumMarkers	Units	OrigDataRate	OrigDataStartFrame	OrigNumFrames
82.840236686391	82.840236686391	4	33	mm	82.840236686391	71	       141
Frame#	Time	Sacral			L.Shoulder			Chest			R.Shoulder			Neck			R.ASIS			L.ASIS			R.Thigh.Superior			R.Thigh.Lateral			R.Thigh.Inferior			R.Patella			L.Thigh.Superior			L.Thigh.Lateral			L.Thigh.Inferior			L.Patella			L.Shank.Superior			L.Shank.Lateral			L.Shank.Inferior			R.Shank.Superior			R.Shank.Lateral			R.Shank.Inferior			R.Heel			R.Midfoot.Superior			R.Midfoot.Lateral			R.Toe			L.Heel			L.Midfoot.Lateral			L.Midfoot.Superior			L.Toe			L.Elbow			L.Wrist			R.Elbow			R.Wrist			
		X1	Y1	Z1	X2	Y2	Z2	X3	Y3	Z3	X4	Y4	Z4	X5	Y5	Z5	X6	Y6	Z6	X7	Y7	Z7	X8	Y8	Z8	X9	Y9	Z9	X10	Y10	Z10	X11	Y11	Z11	X12	Y12	Z12	X13	Y13	Z13	X14	Y14	Z14	X15	Y15	Z15	X16	Y16	Z16	X17	Y17	Z17	X18	Y18	Z18	X19	Y19	Z19	X20	Y20	Z20	X21	Y21	Z21	X22	Y22	Z22	X23	Y23	Z23	X24	Y24	Z24	X25	Y25	Z25	X26	Y26	Z26	X27	Y27	Z27	X28	Y28	Z28	X29	Y29	Z29	X30	Y30	Z30	X31	Y31	Z31	X32	Y32	Z32	X33	Y33	Z33	

71	18.055000000000	755.548523088564	1001.131434025995	450.083784270124	952.650918487143	1432.976671486368	286.886939918128	1040.394641506166	1357.339101499307	453.252033463186	944.056047656348	1432.175254635935	619.275560547049	939.737068312013	1490.450998605101	438.278654415937	976.051096060455	941.196966385746	581.615745996288	979.522819335277	957.485977736728	305.342595363821	1052.666446406894	768.533407441116	555.861576498683	1009.796282819414	647.013797509502	628.846137516280	1098.923488765047	609.980751109171	549.023357370351	1134.584399839193	529.658630870960	566.960275461789	983.290444688598	729.227836009774	340.131978634155	869.865948002412	631.646643475639	276.971129815372	927.747669446956	540.364268882322	346.089061368629	912.154134137883	473.522710609265	357.521597392180	879.550626947798	406.777139403467	349.840267107036	778.536778274587	302.243909951616	300.396494729732	812.280813790215	188.215961232385	375.976756365604	1122.236125226202	442.253498777995	577.091342563060	1074.777517112459	325.429029137132	639.026563218183	1149.874566058403	243.795385938270	587.863273841548	1068.440502468325	52.746677104430	555.787784604984	1227.667332904761	132.938808144905	600.342991912195	1152.437580114457	52.059356481577	630.052047002838	1353.423183874588	99.742802498074	625.219100840414	670.813171767283	39.574459421158	420.805153372428	743.315728834507	35.662314335674	339.426342910007	827.975104590325	95.116338048284	365.221455007837	955.193691072560	40.306619200875	334.151857485960	998.657027839525	1099.427964897930	138.607206015843	1243.490465858342	1026.802185577715	172.610514535151	778.264968576259	1128.146201632054	718.333504774798	729.102454896819	871.058008148072	717.558605559906	
72	18.067071428571	757.248733335614	999.007750199841	452.034587434658	951.807916430110	1431.308719437792	288.219927940828	1040.091121952500	1356.449806938243	454.602012930913	943.602671899530	1431.100078847770	620.543205073220	938.705500987700	1488.948840937409	439.518804582210	978.003653824636	939.094220331621	583.127333712065	981.100913081811	956.268235737328	306.977664666268	1052.941567260553	764.331929369200	558.075234104626	1007.462931382967	642.891125668011	629.824668987568	1096.976813973066	605.455032719859	550.714910225597	1131.104110808179	525.415230393164	567.714114688648	982.882521319018	727.500618662929	340.842138965216	868.029608148383	631.116664609260	277.707701513355	925.004914399147	539.107430832178	346.472461348045	908.738576925945	472.225574543248	357.784283356039	875.439523280948	405.855641203289	350.083373061141	773.244981868533	302.387845608499	300.529544618132	805.999235782754	187.901454785022	375.882788589111	1119.273640775410	438.049929259777	577.283897892627	1071.539163377858	320.753230201616	637.743197041590	1147.554556960751	239.818669918828	586.839950736855	1066.972229313363	49.639852158599	552.877905315013	1225.866671853979	128.836420856547	598.744157204213	1150.225108162992	48.702187152131	627.860860121121	1351.277228123937	95.228474291247	624.569660700819	663.515723208443	39.806793001288	420.628001544016	736.072710079973	35.701150637575	339.350494449620	820.785512595189	95.103902619727	365.109224046860	947.910960932493	40.161686704230	334.135961397454	1002.232779301673	1098.668152342651	140.299123980702	1249.152952427437	1034.349339852284	174.103648451611	775.173841922625	1129.133618503237	718.793052141468	723.685981640601	872.376783200805	717.989447888012	
73	18.079142857143	759.032315798443	996.881448670601	454.132890280363	950.939101441052	1429.580035699862	289.637811042832	1039.828074648856	1355.563464689667	456.034017397425	943.165248102007	1429.952598648113	621.933433900146	937.623557526956	1487.412151885708	440.859726443556	980.067414847792	936.960428124080	584.781750322445	982.768954630519	954.959348680442	308.770470145639	1053.755908474374	760.453207787913	560.342430072096	1005.609968615529	638.951752595130	630.515196451360	1095.690517187469	601.363357159467	552.246907811194	1128.190459272076	521.219237261438	568.131436594817	982.776875270493	725.771696293443	341.682799033635	866.579716393961	630.525705329442	278.621130375907	922.760601192064	537.795593678047	347.005196516547	905.856900340529	470.776342151905	358.192857204227	871.734701562921	404.812911181413	350.456921616943	768.231313019499	302.572148934200	300.755200403715	799.846434854835	187.577736961134	375.817805053309	1116.364392995106	433.691233347696	577.107263382664	1067.625344250577	316.305558458343	636.230082374748	1143.770607320250	235.533551174741	585.480669664546	1062.414967176438	47.138374212614	550.044340978184	1221.650661826708	124.009835014954	596.658179646195	1145.014127547303	45.527335138271	625.656746764328	1346.494651856508	89.035360842432	623.388941979638	656.210685283952	40.129714309974	420.407849181603	728.844421523682	35.767006754670	339.249941896139	813.629019789243	95.115936413080	364.970101201093	940.654433146565	40.010085609701	334.097146841286	1005.394191692986	1097.721790424138	142.166801603247	1254.062945385671	1041.251527658063	175.575986850623	773.293366668363	1129.327928101828	719.585246167069	720.088860269105	872.803722287155	718.612647774673	
74	18.091214285714	760.851836203556	994.827904567110	456.354387743738	950.105662761320	1427.849888730749	291.151709522226	1039.640527881514	1354.702929582859	457.558732308092	942.785202262468	1428.769235567715	623.460564283031	936.568277056393	1485.899638898454	442.312341806694	982.197423627726	934.883533564915	586.569500676381	984.450926975354	953.588354687381	310.704553310007	1055.083551255912	756.987514655158	562.598263039058	1004.288162374582	635.338069645965	630.939435967343	1095.033598752394	597.815629620911	553.543726636550	1125.873225519714	517.235968343335	568.164308203726	982.966864774808	724.091245438650	342.654186778189	865.537086074269	629.886557793077	279.721779705078	921.066984567253	536.453516822772	347.698363650853	903.583305408488	469.181665975780	358.746660582824	868.485176975502	403.662621370383	350.969142351679	763.537076811793	302.828445679132	301.090680959756	793.847545743735	187.269770606267	375.786993343771	1113.655391512215	429.375930928855	576.598453867287	1063.423055400798	312.218036934173	634.643555928167	1138.986865799150	231.144660398069	583.871478427352	1055.498904274034	45.172506627521	547.476027061330	1215.634717855362	118.834967830541	594.227645699495	1137.587555068141	42.679703666612	623.596724031630	1339.792272020510	81.810501247484	621.761980171864	648.906572590355	40.600651310996	420.147652201644	721.636440415846	35.881860791070	339.127367325009	806.530949490492	95.158061267690	364.796276268988	933.432745125510	39.851905238590	334.032937733345	1008.109850867070	1096.600031790807	144.206957612330	1258.218919564435	1047.405132503722	177.024058753655	772.637707584550	1128.722169397451	720.733059706144	718.333489774330	872.321494718448	719.482154800423	
